<svg xmlns="http://www.w3.org/2000/svg" width="64" height="64" shape-rendering="geometricPrecision" text-rendering="geometricPrecision" image-rendering="optimizeQuality" fill-rule="evenodd" clip-rule="evenodd" viewBox="0 0 640 640"><path d="M579.999 0H60C27 0 0 27 0 60v520c0 33 27 60 60 60h519.999c33 0 60-27 60-60V60c0-33-27-60-60-60zM225.05 97.348h189.912c71.316 0 129.628 57.591 129.628 127.95v189.404c0 70.37-58.312 127.95-129.628 127.95H225.05c-71.304 0-129.628-57.58-129.628-127.95V225.298c0-70.36 58.324-127.95 129.628-127.95zm93.745 102.426c69.296 0 125.541 56.233 125.541 125.54 0 69.309-56.245 125.53-125.54 125.53-69.32 0-125.542-56.221-125.542-125.53 0-69.307 56.221-125.54 125.541-125.54zm0 42.402c45.887 0 83.139 37.229 83.139 83.139 0 45.898-37.252 83.138-83.139 83.138-45.91 0-83.15-37.24-83.15-83.138 0-45.91 37.24-83.14 83.15-83.14zm121.454-59.8c11.256 0 20.375 9.118 20.375 20.374 0 11.256-9.119 20.386-20.375 20.386s-20.386-9.13-20.386-20.386c0-11.256 9.13-20.374 20.386-20.374zm-199.69-48.65h158.895c59.658 0 108.45 48.544 108.45 107.87v159.688c0 59.327-48.792 107.87-108.45 107.87H240.558c-59.646 0-108.45-48.543-108.45-107.87V241.597c0-59.328 48.804-107.871 108.45-107.871z"/></svg>